<svg width="20" height="20" viewBox="0 0 20 20" fill="none" xmlns="http://www.w3.org/2000/svg">
<g id="mail-02 - 20px">
<path id="Vector" d="M5.83099 7.08453L8.2817 8.53345C9.71044 9.3782 10.2815 9.3782 11.7103 8.53345L14.161 7.08453" stroke="#9E9E9E" stroke-width="1.2495" stroke-linecap="round" stroke-linejoin="round"/>
<path id="Vector_2" d="M1.67912 11.2292C1.73358 13.7828 1.7608 15.0596 2.70303 16.0054C3.64526 16.9513 4.95661 16.9842 7.57931 17.0501C9.19573 17.0907 10.7963 17.0907 12.4127 17.0501C15.0354 16.9842 16.3467 16.9513 17.2889 16.0054C18.2312 15.0596 18.2584 13.7828 18.3128 11.2292C18.3304 10.4081 18.3304 9.59188 18.3128 8.77088C18.2584 6.21726 18.2312 4.94046 17.2889 3.99465C16.3467 3.04883 15.0354 3.01589 12.4127 2.94999C10.7963 2.90937 9.19573 2.90937 7.57931 2.94998C4.95661 3.01587 3.64526 3.04882 2.70303 3.99464C1.7608 4.94045 1.73357 6.21725 1.67912 8.77079C1.66161 9.59188 1.66161 10.4081 1.67912 11.2292Z" stroke="#9E9E9E" stroke-width="1.2495" stroke-linejoin="round"/>
</g>
</svg>
