<svg width="20" height="20" viewBox="0 0 20 20" fill="none" xmlns="http://www.w3.org/2000/svg">
<g id="smart-phone-01">
<path id="Vector" d="M4.16501 7.50098C4.16501 4.75222 4.16501 3.37784 5.01894 2.52392C5.87287 1.66998 7.24725 1.66998 9.99601 1.66998C12.7447 1.66998 14.1191 1.66998 14.9731 2.52392C15.827 3.37784 15.827 4.75222 15.827 7.50098V12.499C15.827 15.2477 15.827 16.6221 14.9731 17.4761C14.1191 18.33 12.7447 18.33 9.99601 18.33C7.24725 18.33 5.87287 18.33 5.01894 17.4761C4.16501 16.6221 4.16501 15.2477 4.16501 12.499V7.50098Z" stroke="#9E9E9E" stroke-width="1.2495" stroke-linecap="round"/>
<path id="Vector_2" d="M9.16299 15.831H10.829" stroke="#9E9E9E" stroke-width="1.2495" stroke-linecap="round" stroke-linejoin="round"/>
<path id="Vector_3" d="M7.49701 1.66998L7.57115 2.11482C7.73182 3.07883 7.81215 3.56083 8.14274 3.85414C8.48761 4.1601 8.9765 4.16898 9.99601 4.16898C11.0155 4.16898 11.5044 4.1601 11.8493 3.85414C12.1799 3.56083 12.2602 3.07883 12.4209 2.11482L12.495 1.66998" stroke="#9E9E9E" stroke-width="1.2495" stroke-linejoin="round"/>
</g>
</svg>
