<svg width="20" height="20" viewBox="0 0 20 20" fill="none" xmlns="http://www.w3.org/2000/svg">
<g id="view - 20px">
<path id="Vector" d="M17.9541 9.20413C18.2073 9.55923 18.3339 9.73683 18.3339 9.99964C18.3339 10.2625 18.2073 10.44 17.9541 10.7952C16.8161 12.3908 13.91 15.8306 10.0039 15.8306C6.0978 15.8306 3.19173 12.3908 2.0538 10.7952C1.80055 10.44 1.67392 10.2625 1.67392 9.99964C1.67392 9.73683 1.80055 9.55923 2.0538 9.20413C3.19173 7.60846 6.0978 4.16864 10.0039 4.16864C13.91 4.16864 16.8161 7.60846 17.9541 9.20413Z" stroke="#9E9E9E" stroke-width="1.2495"/>
<path id="Vector_2" d="M12.5029 9.99967C12.5029 8.61947 11.3841 7.50067 10.0039 7.50067C8.62372 7.50067 7.50492 8.61947 7.50492 9.99967C7.50492 11.3799 8.62372 12.4987 10.0039 12.4987C11.3841 12.4987 12.5029 11.3799 12.5029 9.99967Z" stroke="#9E9E9E" stroke-width="1.2495"/>
</g>
</svg>
